<svg xmlns="http://www.w3.org/2000/svg" xmlns:xlink="http://www.w3.org/1999/xlink" width="300pt" height="80pt" viewBox="0 0 841.889893 595.28" version="1.1">
<g id="surface1">
<path style=" stroke:none;fill-rule:nonzero;fill:rgb(100%,100%,100%);fill-opacity:1;" d="M 0 595.28125 L 841.890625 595.28125 L 841.890625 0.00390625 L 0 0.00390625 Z M 0 595.28125 "/>
<path style=" stroke:none;fill-rule:nonzero;fill:rgb(5.899048%,32.499695%,61.999512%);fill-opacity:1;" d="M 130.152344 261.183594 C 132.3125 259.179688 132.726563 258.105469 132.40625 255.113281 C 131.261719 257.140625 129.851563 258.734375 130.152344 261.183594 M 124.632813 276.574219 C 122.929688 279.0625 121.15625 280.585938 122.492188 283.449219 C 123.820313 281.398438 124.820313 279.636719 124.632813 276.574219 M 128.816406 264.808594 C 126.480469 267.429688 125.414063 270.75 125.921875 274.125 C 127.378906 270.972656 128.824219 268.28125 128.816406 264.808594 M 115.042969 307.851563 C 116.464844 305.382813 117.917969 302.921875 117.398438 298.921875 C 115.710938 302.316406 114.464844 304.8125 115.042969 307.851563 M 114.398438 312.984375 C 111.183594 314.046875 105.910156 325.828125 106.71875 329.8125 C 110.96875 324.789063 112.109375 318.855469 114.398438 312.984375 M 119.003906 303.566406 C 115.851563 311.261719 114.578125 316.726563 115.339844 319.160156 C 115.507813 319.03125 115.714844 318.933594 115.835938 318.773438 C 117.492188 316.585938 119.140625 314.390625 120.777344 312.191406 C 124.492188 307.210938 124.488281 307.207031 119.003906 303.566406 M 168.109375 251.339844 C 168.109375 254.5625 167.980469 257.515625 168.167969 260.453125 C 168.246094 261.722656 168.90625 263.4375 170.6875 262.03125 C 173.863281 259.515625 176.945313 256.871094 179.882813 254.085938 C 180.9375 253.082031 181.121094 251.464844 178.953125 251.378906 C 175.378906 251.238281 171.796875 251.339844 168.109375 251.339844 M 150.765625 199.660156 C 150.433594 199.601563 150.101563 199.542969 149.765625 199.484375 C 146.46875 212.214844 143.171875 224.945313 139.804688 237.929688 L 154.390625 237.929688 C 153.164063 224.996094 151.964844 212.328125 150.765625 199.660156 M 105.769531 357.496094 C 99.957031 371.441406 93.472656 384.726563 90.183594 400.082031 C 93.128906 398.480469 94.503906 396.46875 96.125 394.761719 C 103.949219 386.550781 111.722656 378.289063 119.527344 370.0625 C 120.804688 368.714844 121.722656 367.246094 119.710938 365.964844 C 115.371094 363.199219 110.925781 360.609375 105.769531 357.496094 M 161.257813 290.414063 C 160.28125 290.257813 159.867188 290.601563 159.472656 291.007813 C 154.570313 296.074219 149.742188 301.210938 144.726563 306.15625 C 142.921875 307.933594 143.171875 309.066406 144.753906 310.765625 C 151.054688 317.535156 157.222656 324.425781 163.453125 331.257813 C 166.53125 334.632813 169.644531 337.976563 172.761719 341.351563 C 174.109375 340.078125 173.777344 338.917969 173.40625 337.738281 C 172.484375 334.804688 171.488281 331.886719 170.675781 328.921875 C 167.671875 317.921875 163.210938 307.273438 162.898438 295.625 C 162.851563 293.867188 162.683594 291.867188 161.257813 290.414063 M 74.699219 249.152344 C 74.371094 252.160156 77.363281 251.949219 78.757813 253.113281 C 89.070313 261.695313 99.554688 270.070313 109.972656 278.527344 C 111.101563 279.441406 112.171875 280.355469 113.914063 279.636719 C 117.28125 269.660156 120.667969 259.632813 124.207031 249.152344 Z M 184.941406 407.375 C 185.414063 402.773438 184.066406 398.550781 182.996094 394.308594 C 179.46875 380.339844 174.078125 367.203125 165.53125 355.476563 C 164.136719 353.5625 162.972656 352.875 160.726563 354.523438 C 155.410156 358.433594 149.910156 362.085938 144.457031 365.804688 C 142.214844 367.335938 141.523438 368.546875 144.011719 370.8125 C 156.792969 382.4375 169.40625 394.242188 182.089844 405.972656 C 182.785156 406.617188 183.347656 407.539063 184.941406 407.375 M 156.097656 341.851563 C 156.027344 340.925781 155.582031 340.183594 154.980469 339.511719 C 149.484375 333.347656 144.035156 327.140625 138.46875 321.039063 C 135.878906 318.199219 133.714844 318.296875 131.34375 321.269531 C 125.644531 328.421875 120.046875 335.648438 114.363281 342.8125 C 112.921875 344.632813 113.039063 346.121094 114.789063 347.65625 C 119.183594 351.5 123.503906 355.429688 127.890625 359.28125 C 129.078125 360.320313 130.367188 361.117188 132.023438 359.9375 C 139.554688 354.566406 147.109375 349.234375 154.65625 343.886719 C 155.371094 343.378906 156.164063 342.914063 156.097656 341.851563 M 133.449219 299.636719 C 141.863281 290.863281 149.996094 282.355469 158.179688 273.894531 C 159.035156 273.011719 159.324219 272.125 159.207031 270.949219 C 158.695313 265.804688 158.382813 260.632813 157.683594 255.515625 C 157.253906 252.359375 155.511719 250.382813 151.992188 249.605469 C 147.679688 248.648438 143.472656 249.484375 139.226563 249.277344 C 137.816406 249.210938 137.371094 250.050781 136.964844 251.148438 C 132.574219 262.992188 128.171875 274.832031 123.75 286.664063 C 123.382813 287.648438 123.160156 288.511719 123.988281 289.398438 C 126.902344 292.515625 129.78125 295.660156 133.449219 299.636719 M 157.179688 154.089844 C 161.4375 157.492188 162.121094 162.253906 161.429688 167.101563 C 159.570313 180.109375 161.21875 193.035156 162.046875 205.964844 C 162.753906 217.035156 164.074219 228.0625 165.136719 239.289063 C 175.414063 240.214844 185.472656 241.140625 195.53125 242.015625 C 206.496094 242.972656 217.464844 243.863281 228.429688 244.816406 C 231.789063 245.109375 232.804688 246.621094 232.085938 249.929688 C 231.707031 251.6875 230.867188 253.222656 229.972656 254.738281 C 228.484375 257.25 226.730469 258.328125 223.453125 257.507813 C 214.324219 255.234375 204.949219 254.976563 195.578125 255.011719 C 194.9375 255.015625 194.257813 254.9375 193.695313 255.558594 C 193.574219 257.054688 195.335938 257.484375 195.679688 259 C 194.757813 260.867188 192.90625 262.089844 191.246094 263.464844 C 185.570313 268.164063 179.355469 272.1875 174.007813 277.316406 C 172.460938 278.796875 171.867188 280.128906 172.398438 282.203125 C 184.753906 330.574219 194.515625 379.539063 205.710938 428.175781 C 205.714844 429.136719 206.371094 430.039063 205.886719 431.253906 C 201.917969 431.253906 197.855469 431.050781 193.828125 431.324219 C 190.910156 431.519531 188.734375 431 187.660156 428.046875 C 186.539063 425.09375 184.503906 422.796875 182.246094 420.691406 C 179.183594 417.835938 176.054688 415.058594 172.957031 412.242188 C 160.488281 400.90625 147.984375 389.613281 135.597656 378.195313 C 133.566406 376.324219 131.910156 376.121094 129.867188 377.824219 C 129.019531 378.527344 128.097656 379.140625 127.265625 379.863281 C 111.238281 393.777344 98.664063 410.617188 86.695313 427.957031 C 84.648438 430.429688 82.796875 433.035156 81.246094 435.851563 C 80.90625 436.28125 80.523438 436.683594 80.234375 437.144531 C 76.652344 442.855469 76.839844 442.113281 72.128906 438.050781 C 70.628906 436.757813 69.035156 435.539063 67.703125 434.085938 C 64.621094 430.71875 63.21875 427.085938 65.089844 422.367188 C 81.570313 380.835938 93.988281 337.953125 107.164063 295.320313 C 107.972656 292.722656 107.566406 291.242188 105.421875 289.535156 C 94.558594 280.898438 83.929688 271.972656 73.039063 263.378906 C 64.03125 256.265625 53.78125 252.011719 42.207031 251.316406 C 38.882813 251.117188 35.816406 250.03125 32.820313 248.683594 L 32.820313 242.730469 C 35.972656 238.183594 40.417969 237.148438 45.652344 237.675781 C 49.25 238.039063 52.898438 237.9375 56.527344 237.980469 C 78.753906 238.246094 100.980469 238.429688 123.203125 238.828125 C 126.574219 238.886719 128.03125 237.789063 128.976563 234.585938 C 133.152344 220.460938 136.703125 206.175781 140.019531 191.832031 C 142.242188 182.210938 145.582031 172.78125 145.953125 162.808594 C 146.085938 159.195313 146.796875 156.191406 149.902344 154.089844 "/>
<path style=" stroke:none;fill-rule:nonzero;fill:rgb(98.799133%,86.698914%,13.699341%);fill-opacity:1;" d="M 81.246094 435.851563 C 82.796875 433.035156 84.648438 430.429688 86.695313 427.957031 C 88.007813 428.03125 89.320313 428.167969 90.632813 428.167969 C 115.054688 428.179688 139.480469 428.1875 163.90625 428.171875 C 171.824219 428.164063 179.742188 428.089844 187.660156 428.046875 C 188.734375 431 190.910156 431.519531 193.828125 431.324219 C 197.859375 431.050781 201.917969 431.253906 205.882813 431.253906 C 206.375 430.039063 205.714844 429.136719 205.710938 428.175781 C 407.070313 428.175781 608.433594 428.175781 809.945313 428.175781 L 809.945313 435.449219 C 808.878906 436.273438 807.621094 435.882813 806.460938 435.882813 C 565.714844 435.902344 324.96875 435.898438 84.222656 435.898438 C 83.230469 435.898438 82.238281 435.867188 81.246094 435.851563 "/>
<path style=" stroke:none;fill-rule:nonzero;fill:rgb(5.899048%,32.499695%,61.999512%);fill-opacity:1;" d="M 366.878906 334.363281 C 366.738281 336.488281 366.261719 338.167969 368.035156 339.300781 C 368.546875 339.628906 369.484375 339.351563 369.652344 338.644531 C 370.132813 336.621094 368.84375 335.601563 366.878906 334.363281 M 411.464844 324.257813 C 410.125 316.113281 408.378906 314.882813 400.105469 316.441406 C 396.1875 317.179688 392.40625 318.253906 389.894531 322.167969 C 392.5625 323.792969 395.351563 324.519531 398.210938 325.023438 C 397.8125 326.289063 396.417969 325.867188 395.722656 326.726563 C 395.359375 327.464844 395.808594 328.207031 396.238281 328.757813 C 400.167969 333.804688 404.34375 338.628906 409.496094 342.496094 C 411.050781 343.664063 412.597656 343.429688 414.027344 342.230469 C 415.679688 340.839844 416.957031 339.148438 417.054688 336.929688 C 417.308594 331.207031 417.761719 325.429688 416.765625 319.777344 C 416.199219 316.578125 417.210938 314.589844 420.460938 311.992188 C 420.460938 319.761719 420.472656 326.667969 420.457031 333.570313 C 420.449219 336.140625 420.753906 338.625 422.105469 340.878906 C 423.160156 342.636719 424.609375 343.679688 426.765625 343.15625 C 428.890625 342.644531 429.707031 341.296875 429.675781 339.066406 C 429.5625 331.582031 430.253906 324.070313 429.085938 316.628906 C 428.636719 313.761719 430.621094 312.582031 432.386719 310.507813 C 433.222656 315.046875 433.355469 319.253906 434.703125 323.53125 C 432.59375 322.984375 432.417969 324.140625 432.5 325.699219 C 432.722656 330.097656 432.804688 334.5 433.050781 338.894531 C 433.175781 341.089844 432.632813 342.992188 431.402344 344.792969 C 428.136719 349.5625 423.492188 349.566406 420.285156 344.769531 C 419.742188 343.964844 419.128906 343.210938 418.5625 342.457031 C 418.21875 342.597656 417.980469 342.621094 417.863281 342.753906 C 412.386719 349.03125 409.226563 349.203125 403.464844 343.355469 C 402.007813 341.878906 400.835938 340.125 399.15625 338.03125 C 398.460938 339.613281 398.1875 340.070313 398.054688 340.5625 C 395.964844 348.378906 389.40625 350.5 383.066406 345.371094 C 382.21875 344.683594 381.488281 343.839844 380.757813 343.019531 C 379.074219 341.136719 377.261719 339.335938 374.589844 341.0625 C 372.664063 342.304688 372.535156 346.832031 374.3125 348.894531 C 375.371094 350.125 376.144531 351.277344 376.054688 352.980469 C 375.925781 355.464844 374.8125 355.894531 372.875 354.628906 C 369.351563 352.324219 366.019531 349.804688 364.179688 345.597656 C 339.84375 351.804688 315.527344 353.71875 290.882813 346.640625 C 286.902344 353.132813 281.359375 357.75 273.800781 359.585938 C 268.214844 360.9375 262.714844 360.441406 257.300781 358.4375 C 262.929688 357.996094 268.519531 357.457031 273.945313 355.855469 C 277.886719 354.691406 281.621094 353.113281 284.742188 350.359375 C 287.855469 347.609375 287.988281 346.179688 285.5 342.765625 C 284.726563 341.703125 283.878906 340.695313 283.019531 339.601563 C 283.878906 338.402344 284.703125 337.238281 285.578125 336.015625 C 291.109375 342.835938 299.046875 343.753906 306.792969 344.847656 C 323.722656 347.238281 340.589844 347.277344 357.230469 342.648438 C 357.652344 342.53125 358.066406 342.363281 358.496094 342.289063 C 362.425781 341.617188 365.179688 339.832031 365.179688 335.363281 C 365.179688 335.050781 365.363281 334.734375 365.476563 334.425781 C 366.230469 332.398438 366.632813 329.476563 369.277344 329.71875 C 372.335938 330 371.769531 333.230469 371.984375 335.355469 C 372.230469 337.820313 371.332031 340.101563 369.527344 341.964844 C 368.871094 342.644531 368.101563 343.46875 368.667969 344.570313 C 368.835938 344.894531 369.347656 345.28125 369.667969 345.253906 C 370.902344 345.140625 371.121094 344.03125 371.382813 343.109375 C 372.023438 340.839844 373.121094 338.816406 374.699219 337.097656 C 377.027344 334.558594 379.585938 334.691406 381.585938 337.496094 C 383.140625 339.675781 384.757813 341.75 387.242188 342.90625 C 389.390625 343.90625 391.578125 343.949219 393.429688 342.3125 C 395.214844 340.730469 394.710938 338.761719 394 336.8125 C 392.699219 333.242188 389.996094 330.808594 387.28125 328.382813 C 381.214844 322.960938 381.304688 321.496094 388.1875 317.339844 C 392.347656 314.828125 396.695313 312.6875 401.550781 311.875 C 402.949219 311.640625 404.40625 311.492188 405.816406 311.59375 C 412.839844 312.097656 415.558594 318.253906 411.464844 324.257813 "/>
<path style=" stroke:none;fill-rule:nonzero;fill:rgb(5.899048%,32.499695%,61.999512%);fill-opacity:1;" d="M 621.558594 335.625 C 613.675781 330.390625 603.675781 333.292969 601.113281 340.863281 C 608.277344 341.023438 614.472656 338.257813 621.558594 335.625 M 597.664063 312.613281 C 597.394531 316.726563 600.347656 319.808594 599.105469 324.214844 C 598.039063 327.988281 598.882813 332.296875 598.882813 336.449219 C 601.273438 336.722656 602.242188 335.066406 603.476563 333.949219 C 609.578125 328.410156 616.664063 327.230469 622.507813 330.828125 C 625.929688 332.9375 626.144531 335.550781 622.863281 338.128906 C 618.816406 341.308594 614.039063 343.046875 609.105469 344.277344 C 603.574219 345.652344 597.996094 345.933594 592.523438 343.953125 C 590.675781 343.285156 589.101563 343.972656 587.414063 344.449219 C 558.710938 352.515625 529.785156 353.960938 500.589844 347.335938 C 496.273438 346.355469 492.695313 344.023438 489.378906 341.265625 C 486.066406 338.511719 483.78125 338.496094 480.214844 341.554688 C 481.113281 343.042969 482.65625 343.164063 484.140625 343.527344 C 486.289063 344.050781 488.003906 345.234375 488.511719 347.535156 C 488.992188 349.746094 487.761719 351.351563 486.257813 352.726563 C 484.179688 354.621094 481.621094 355.691406 478.960938 356.417969 C 473.507813 357.902344 467.921875 358.488281 462.285156 358.363281 C 456.5625 358.238281 453.226563 353.507813 455.109375 348.125 C 456.171875 345.089844 457.464844 342.058594 461.398438 340.46875 C 459.949219 342.800781 458.558594 344.453125 457.960938 346.585938 C 457.121094 349.574219 457.835938 351.746094 460.742188 353.097656 C 463.40625 354.335938 466.179688 354.742188 469.097656 354.550781 C 473.839844 354.238281 481.550781 351.746094 484.265625 349.542969 C 483.757813 347.78125 482.105469 347.777344 480.828125 347.636719 C 475.738281 347.070313 473.875 343.085938 478.40625 339.261719 C 479.574219 338.273438 480.449219 336.949219 481.550781 335.875 C 484.121094 333.367188 487.71875 332.941406 490.121094 335.542969 C 496.359375 342.296875 504.605469 344.132813 513.046875 345.144531 C 529.585938 347.125 546.203125 347.722656 562.800781 345.890625 C 571.886719 344.890625 580.933594 343.414063 589.410156 339.800781 C 592.132813 338.640625 594.277344 340.949219 597.105469 340.09375 C 597.097656 332.242188 596.769531 324.261719 595.488281 316.363281 C 595.175781 314.433594 595.542969 313.515625 597.664063 312.613281 "/>
<path style=" stroke:none;fill-rule:nonzero;fill:rgb(5.899048%,32.499695%,61.999512%);fill-opacity:1;" d="M 755.800781 341.941406 C 756.269531 342.46875 756.609375 342.886719 756.984375 343.265625 C 759.515625 345.824219 762.265625 346.433594 764.335938 344.914063 C 765.921875 343.75 765.847656 340.265625 764.148438 337.605469 C 763.246094 336.195313 762.003906 335.105469 760.660156 334.121094 C 757.644531 331.910156 754.605469 329.71875 751.625 327.460938 C 748.4375 325.042969 748.289063 322.703125 751.039063 319.722656 C 756.199219 314.132813 771.769531 310.589844 778.917969 313.375 C 782.15625 314.636719 782.925781 318.785156 780.613281 322.539063 C 779.101563 317.101563 778.4375 316.667969 772.460938 317.21875 C 763.035156 318.085938 758.898438 319.273438 754.539063 322.414063 C 756.8125 325.074219 759.882813 324.910156 763.394531 324.800781 C 761.210938 327.078125 762.238281 328.335938 764.101563 329.820313 C 768.773438 333.539063 772.613281 338.09375 776.363281 342.726563 C 779.1875 346.214844 782.527344 346.644531 785.507813 344.121094 C 786.667969 343.140625 787.28125 342.015625 787.246094 340.414063 C 787.0625 332.492188 787.226563 324.546875 785.714844 316.726563 C 785.308594 314.636719 786.285156 313.652344 788.03125 312.617188 C 789.632813 316.316406 789.824219 320.421875 791.796875 324.214844 C 790.15625 324.628906 789.722656 325.441406 789.871094 327.023438 C 790.34375 332.066406 790.394531 337.128906 789.9375 342.195313 C 789.6875 344.96875 791.261719 346.136719 795.5625 346.621094 C 794.410156 351.289063 792.425781 352.226563 788.457031 349.75 C 786.921875 348.789063 785.5 348.152344 783.921875 349.25 C 780.605469 351.558594 777.804688 350.308594 775.335938 347.945313 C 772.914063 345.625 770.738281 343.042969 768.441406 340.558594 C 767.25 341.484375 767.695313 342.546875 767.660156 343.457031 C 767.382813 350.402344 762.371094 353.402344 756.410156 349.902344 C 754.339844 348.683594 752.855469 348.757813 750.707031 349.589844 C 740.492188 353.542969 730.355469 354.378906 720.792969 347.679688 C 719.46875 346.75 718.296875 347.195313 717.039063 347.535156 C 708.945313 349.742188 700.78125 351.46875 692.320313 351.222656 C 689.210938 351.132813 686.136719 350.761719 683.382813 349.242188 C 680.929688 347.894531 678.722656 346.203125 678.917969 342.921875 C 679.132813 339.257813 680.847656 336.902344 684.488281 335.429688 C 683.945313 337.179688 683.335938 338.773438 682.964844 340.425781 C 682.402344 342.90625 683.589844 344.664063 685.9375 345.140625 C 698.03125 347.585938 709.96875 348.148438 721.261719 341.417969 C 732.515625 350.089844 744.09375 349.527344 755.800781 341.941406 "/>
<path style=" stroke:none;fill-rule:nonzero;fill:rgb(5.899048%,32.499695%,61.999512%);fill-opacity:1;" d="M 364.917969 389.417969 L 364.917969 410.597656 C 363.617188 411.035156 362.460938 411.003906 361.171875 410.570313 L 361.171875 384.242188 C 363.972656 383.484375 365.921875 383.921875 367.679688 386.503906 C 371.746094 392.472656 376.171875 398.199219 380.808594 404.507813 L 380.808594 384.433594 C 382.292969 383.742188 383.4375 383.785156 384.730469 384.261719 L 384.730469 410.558594 C 381.835938 411.601563 380.070313 410.53125 378.414063 408.121094 C 374.1875 401.976563 369.703125 396.011719 364.917969 389.417969 "/>
<path style=" stroke:none;fill-rule:nonzero;fill:rgb(5.899048%,32.499695%,61.999512%);fill-opacity:1;" d="M 644.414063 313.570313 C 645.34375 317.910156 645.96875 322.039063 647.816406 326.125 C 646.011719 326.53125 646.113281 327.871094 646.210938 329.324219 C 646.46875 333.054688 646.675781 336.792969 646.8125 340.53125 C 646.9375 344.011719 645.214844 346.660156 642.097656 347.761719 C 639.582031 348.648438 637.910156 350.234375 636.058594 351.933594 C 627.992188 359.332031 618.332031 360.589844 607.976563 358.8125 C 607.027344 358.648438 606.101563 358.355469 605.132813 358.109375 C 605.332031 356.441406 606.542969 356.855469 607.398438 356.816406 C 613.460938 356.554688 619.503906 356.132813 625.363281 354.453125 C 628.621094 353.523438 631.871094 352.472656 634.210938 349.507813 C 633.816406 349.265625 633.585938 349.007813 633.332031 348.984375 C 631.1875 348.773438 629.097656 348.5625 628.84375 345.730469 C 628.613281 343.128906 629.707031 341.035156 631.902344 339.976563 C 634.167969 338.882813 636.421875 339.589844 638.167969 341.527344 C 639.097656 342.558594 639.375 344.753906 641.53125 343.71875 C 643.425781 342.808594 643.5 340.925781 643.421875 339.136719 C 643.171875 333.195313 642.746094 327.265625 641.632813 321.414063 C 640.808594 317.070313 640.769531 317.078125 644.414063 313.570313 "/>
<path style=" stroke:none;fill-rule:nonzero;fill:rgb(5.899048%,32.499695%,61.999512%);fill-opacity:1;" d="M 238.441406 397.4375 C 238.398438 403.765625 242.523438 408.339844 248.3125 408.382813 C 254.152344 408.425781 258.296875 403.996094 258.386719 397.613281 C 258.476563 391.171875 254.15625 386.355469 248.335938 386.414063 C 242.625 386.46875 238.488281 391.078125 238.441406 397.4375 M 248.707031 383.5 C 257.3125 383.492188 262.945313 388.992188 262.917969 397.359375 C 262.886719 405.898438 257.003906 411.464844 248.0625 411.414063 C 239.707031 411.367188 233.9375 405.78125 233.914063 397.726563 C 233.890625 389.300781 239.914063 383.503906 248.707031 383.5 "/>
<path style=" stroke:none;fill-rule:nonzero;fill:rgb(5.899048%,32.499695%,61.999512%);fill-opacity:1;" d="M 550.769531 401.296875 C 550.789063 396.28125 548.980469 394.117188 544.765625 394.113281 C 540.792969 394.105469 538.1875 396.835938 538.105469 401.089844 C 538.027344 405.34375 540.605469 408.289063 544.476563 408.371094 C 548.515625 408.457031 550.753906 405.941406 550.769531 401.296875 M 555.007813 410.613281 C 553.078125 411.179688 551.3125 411.476563 551 408.703125 C 545.078125 412.429688 539.722656 412.230469 536.160156 408.292969 C 532.894531 404.683594 532.839844 398.472656 536.039063 394.582031 C 539.351563 390.550781 545.039063 389.945313 550.691406 393.25 L 550.691406 382.601563 L 555.007813 382.601563 "/>
<path style=" stroke:none;fill-rule:nonzero;fill:rgb(5.899048%,32.499695%,61.999512%);fill-opacity:1;" d="M 619.445313 407.96875 L 632.242188 407.96875 C 633.125 408.855469 632.839844 409.773438 632.539063 410.730469 L 615.078125 410.730469 L 615.078125 384.089844 L 631.671875 384.089844 C 632.464844 384.796875 632.046875 385.699219 632.070313 386.863281 L 619.480469 386.863281 L 619.480469 395.257813 L 630.621094 395.257813 C 631.726563 396.371094 631.269531 397.203125 631.21875 398.253906 L 619.605469 398.253906 C 619 401.542969 619.296875 404.628906 619.445313 407.96875 "/>
<path style=" stroke:none;fill-rule:nonzero;fill:rgb(5.899048%,32.499695%,61.999512%);fill-opacity:1;" d="M 443.0625 401.132813 C 443 405.300781 445.980469 408.632813 449.777344 408.644531 C 453.453125 408.65625 456.371094 405.527344 456.46875 401.476563 C 456.574219 397.023438 453.964844 393.988281 449.980469 393.929688 C 445.9375 393.867188 443.128906 396.796875 443.0625 401.132813 M 449.378906 411.414063 C 443.089844 411.328125 438.574219 407.074219 438.644531 401.308594 C 438.71875 395.164063 443.621094 390.847656 450.339844 391.011719 C 456.800781 391.164063 460.984375 395.164063 460.941406 401.148438 C 460.898438 407.488281 456.371094 411.511719 449.378906 411.414063 "/>
<path style=" stroke:none;fill-rule:nonzero;fill:rgb(5.899048%,32.499695%,61.999512%);fill-opacity:1;" d="M 503.695313 401.386719 C 501.292969 401.046875 499.148438 401.269531 497.074219 402.109375 C 495.222656 402.859375 494.109375 404.210938 494.652344 406.21875 C 495.199219 408.226563 496.902344 408.78125 498.828125 408.628906 C 502.558594 408.328125 504.070313 406.164063 503.695313 401.386719 M 503.800781 398.285156 C 502.6875 394.042969 500.273438 393.011719 495.085938 394.382813 C 493.609375 394.769531 492.289063 395.472656 491.996094 393.171875 C 495.304688 390.699219 501.371094 390.265625 504.734375 392.246094 C 507.453125 393.847656 508.050781 396.480469 508.132813 399.332031 C 508.1875 401.203125 508.144531 403.078125 508.144531 404.953125 C 508.144531 406.8125 508.144531 408.671875 508.144531 410.695313 C 506.625 410.78125 504.800781 411.820313 504.042969 409.128906 C 501.59375 410.632813 499.085938 411.757813 496.207031 411.382813 C 493.269531 411.003906 490.820313 409.875 490.3125 406.582031 C 489.824219 403.386719 491.511719 401.398438 494.269531 400.085938 C 497.210938 398.683594 500.460938 398.808594 503.800781 398.285156 "/>
<path style=" stroke:none;fill-rule:nonzero;fill:rgb(5.899048%,32.499695%,61.999512%);fill-opacity:1;" d="M 403.042969 401.308594 C 400.664063 401.128906 398.492188 401.242188 396.464844 402.203125 C 394.855469 402.96875 393.746094 404.226563 394.222656 406.105469 C 394.730469 408.117188 396.363281 408.738281 398.28125 408.636719 C 402.148438 408.425781 403.667969 406.171875 403.042969 401.308594 M 391.40625 392.859375 C 393.730469 391.46875 396.019531 391.144531 398.3125 391.03125 C 404.742188 390.726563 407.722656 393.585938 407.78125 400.003906 C 407.8125 403.511719 407.785156 407.023438 407.785156 410.675781 C 406.101563 410.894531 404.328125 411.660156 403.5625 409.128906 C 400.820313 410.960938 397.933594 411.964844 394.746094 411.214844 C 392.269531 410.632813 390.265625 409.371094 389.921875 406.503906 C 389.570313 403.605469 390.871094 401.617188 393.339844 400.316406 C 396.332031 398.742188 399.695313 398.789063 403.210938 398.285156 C 403.378906 395.722656 402.144531 394.394531 399.785156 394.03125 C 397.808594 393.726563 395.808594 393.855469 393.953125 394.652344 C 392.214844 395.398438 391.914063 394.28125 391.40625 392.859375 "/>
<path style=" stroke:none;fill-rule:nonzero;fill:rgb(5.899048%,32.499695%,61.999512%);fill-opacity:1;" d="M 575.839844 399.046875 C 575.351563 395.386719 573.667969 393.730469 570.636719 393.671875 C 567.476563 393.613281 565.316406 395.566406 564.847656 399.046875 Z M 579.902344 402.097656 L 564.832031 402.097656 C 564.519531 407.683594 568.816406 409.460938 578.050781 407.675781 C 579.117188 409.328125 578.988281 410.359375 576.761719 410.808594 C 573.253906 411.515625 569.78125 411.777344 566.34375 410.589844 C 561.542969 408.925781 559.09375 404.070313 560.375 398.867188 C 561.679688 393.570313 566.394531 390.421875 572.117188 391.027344 C 577.179688 391.5625 580.28125 395.164063 580.230469 400.484375 C 580.226563 400.902344 580.066406 401.316406 579.902344 402.097656 "/>
<path style=" stroke:none;fill-rule:nonzero;fill:rgb(5.899048%,32.499695%,61.999512%);fill-opacity:1;" d="M 330.492188 398.933594 L 341.792969 398.933594 C 341.550781 395.480469 339.644531 393.984375 336.703125 393.699219 C 333.636719 393.402344 331.453125 395.265625 330.492188 398.933594 M 345.734375 402.007813 L 330.628906 402.007813 C 330.433594 407.714844 334.636719 409.441406 343.902344 407.683594 C 344.964844 409.359375 344.789063 410.371094 342.578125 410.8125 C 339.066406 411.511719 335.59375 411.777344 332.160156 410.582031 C 327.351563 408.914063 324.925781 404.066406 326.234375 398.851563 C 327.5625 393.53125 332.253906 390.410156 337.980469 391.03125 C 343.058594 391.582031 346.148438 395.203125 346.054688 400.515625 C 346.046875 400.929688 345.882813 401.34375 345.734375 402.007813 "/>
<path style=" stroke:none;fill-rule:nonzero;fill:rgb(5.899048%,32.499695%,61.999512%);fill-opacity:1;" d="M 663.070313 399.191406 C 662.355469 395.179688 660.570313 393.546875 657.429688 393.671875 C 654.375 393.796875 652.375 395.726563 652.003906 399.023438 C 652.535156 399.082031 653.066406 399.183594 653.59375 399.183594 C 656.667969 399.199219 659.742188 399.191406 663.070313 399.191406 M 667.007813 402.121094 L 651.535156 402.121094 C 652.421875 407.933594 656.355469 409.496094 665.113281 407.636719 C 666.140625 409.125 666.4375 410.28125 664.058594 410.761719 C 661.019531 411.375 657.996094 411.742188 654.914063 410.96875 C 650.550781 409.871094 647.875 407.210938 647.335938 403.3125 C 646.707031 398.753906 648.539063 394.527344 652.03125 392.484375 C 655.722656 390.328125 661.25 390.484375 664.191406 392.992188 C 666.9375 395.332031 667.734375 398.375 667.007813 402.121094 "/>
<path style=" stroke:none;fill-rule:nonzero;fill:rgb(5.899048%,32.499695%,61.999512%);fill-opacity:1;" d="M 797.285156 399.0625 C 796.511719 395.164063 794.609375 393.488281 791.523438 393.675781 C 788.445313 393.859375 786.511719 395.789063 786.164063 399.0625 Z M 801.277344 401.996094 L 785.8125 401.996094 C 786.4375 407.886719 789.761719 409.238281 799.363281 407.765625 C 800.457031 409.214844 800.570313 410.3125 798.394531 410.746094 C 795.363281 411.351563 792.332031 411.757813 789.261719 411.023438 C 784.9375 409.996094 782.121094 407.210938 781.59375 403.433594 C 780.925781 398.65625 782.757813 394.496094 786.449219 392.390625 C 790.019531 390.351563 795.410156 390.507813 798.320313 392.890625 C 801.117188 395.179688 801.878906 398.242188 801.277344 401.996094 "/>
<path style=" stroke:none;fill-rule:nonzero;fill:rgb(5.899048%,32.499695%,61.999512%);fill-opacity:1;" d="M 258.460938 309.722656 C 259.652344 318.683594 260.746094 326.640625 261.753906 334.609375 C 262.601563 341.328125 264.277344 342.640625 271.28125 341.671875 C 271.871094 338.925781 270.589844 336.648438 269.230469 334.3125 C 269.832031 333.375 270.417969 332.453125 271.121094 331.351563 C 272.761719 332.953125 273.414063 334.910156 274.050781 336.8125 C 275.101563 339.953125 274.882813 342.945313 272.234375 345.296875 C 270.417969 346.910156 265.257813 346.90625 262.757813 345.46875 C 261.730469 344.875 261.164063 344.070313 260.929688 342.890625 C 259.097656 333.621094 257.847656 324.230469 254.84375 315.195313 C 254.117188 313.015625 257.027344 312.03125 258.460938 309.722656 "/>
<path style=" stroke:none;fill-rule:nonzero;fill:rgb(5.899048%,32.499695%,61.999512%);fill-opacity:1;" d="M 470.183594 410.765625 L 466.253906 410.765625 L 466.253906 391.785156 C 467.894531 391.414063 469.660156 390.878906 470.1875 393.753906 C 473.324219 391.460938 476.511719 390.304688 480.230469 391.503906 C 483.160156 392.449219 485.054688 394.414063 485.230469 397.410156 C 485.484375 401.773438 485.296875 406.160156 485.296875 410.523438 C 483.9375 411.039063 482.777344 410.90625 481.203125 410.609375 C 481.203125 407.269531 481.242188 403.890625 481.195313 400.515625 C 481.136719 396.238281 479.507813 394.21875 476.171875 394.152344 C 472.609375 394.082031 470.335938 396.492188 470.195313 400.550781 C 470.140625 402.203125 470.183594 403.855469 470.183594 405.511719 C 470.183594 407.148438 470.183594 408.785156 470.183594 410.765625 "/>
<path style=" stroke:none;fill-rule:nonzero;fill:rgb(5.899048%,32.499695%,61.999512%);fill-opacity:1;" d="M 278.582031 391.804688 C 278.859375 392.636719 278.902344 393.371094 278.441406 394.195313 C 276.886719 394.304688 275.273438 394.417969 273.390625 394.550781 L 273.390625 410.390625 C 271.867188 411.140625 270.585938 410.910156 269.078125 410.6875 L 269.078125 395.09375 C 267.980469 393.835938 264.679688 395.117188 266.054688 391.761719 C 266.855469 391.648438 267.796875 391.519531 268.703125 391.394531 C 269.890625 383.394531 273.042969 381.066406 280.46875 382.636719 C 281.058594 383.53125 280.464844 384.285156 280.277344 385.070313 C 274.363281 385.046875 273.324219 386 273.484375 391.242188 C 275.027344 391.984375 276.738281 391.234375 278.582031 391.804688 "/>
<path style=" stroke:none;fill-rule:nonzero;fill:rgb(5.899048%,32.499695%,61.999512%);fill-opacity:1;" d="M 751.605469 391.941406 C 752.183594 393.058594 751.496094 393.765625 751.152344 394.605469 C 744.128906 393.644531 737.417969 393.554688 738.929688 403.671875 C 739.546875 407.816406 744.378906 409.136719 751.097656 407.660156 C 752.117188 409.316406 752.375 410.453125 749.808594 410.945313 C 746.839844 411.515625 743.929688 411.675781 741.023438 410.78125 C 737.078125 409.566406 734.640625 406.933594 734.132813 402.824219 C 733.613281 398.65625 735.078125 395.191406 738.757813 393.015625 C 742.859375 390.585938 747.238281 390.4375 751.605469 391.941406 "/>
<path style=" stroke:none;fill-rule:nonzero;fill:rgb(5.899048%,32.499695%,61.999512%);fill-opacity:1;" d="M 687.820313 407.605469 C 688.242188 408.933594 688.878906 409.835938 687.671875 410.613281 C 682.777344 413.769531 672.957031 410.285156 671.132813 404.730469 C 668.9375 398.0625 673.175781 392.183594 680.945313 391.121094 C 682.710938 390.882813 684.4375 391.125 686.191406 391.378906 C 688.59375 391.730469 689.015625 392.703125 687.527344 394.695313 C 683.417969 393.921875 679.152344 393.109375 676.210938 397.269531 C 674.476563 399.722656 674.394531 402.566406 676.078125 405.039063 C 679.039063 409.386719 683.421875 408.59375 687.820313 407.605469 "/>
<path style=" stroke:none;fill-rule:nonzero;fill:rgb(5.899048%,32.499695%,61.999512%);fill-opacity:1;" d="M 322.308594 407.65625 C 323.492188 409.589844 323.222656 410.539063 320.984375 410.953125 C 318.003906 411.507813 315.089844 411.683594 312.1875 410.773438 C 308.402344 409.585938 305.949219 407.109375 305.398438 403.105469 C 304.808594 398.8125 306.171875 395.226563 310.015625 392.984375 C 314.136719 390.574219 318.507813 390.429688 322.859375 391.96875 C 323.472656 393.128906 322.488281 393.742188 322.5 394.585938 C 315.335938 393.707031 308.53125 393.503906 310.144531 403.726563 C 310.796875 407.847656 315.625 409.132813 322.308594 407.65625 "/>
<path style=" stroke:none;fill-rule:nonzero;fill:rgb(5.899048%,32.499695%,61.999512%);fill-opacity:1;" d="M 768.300781 394.671875 C 766.9375 393.988281 764.054688 395.195313 765.171875 391.871094 C 766.007813 391.125 767.242188 391.914063 768.421875 391.222656 C 767.941406 388.269531 769.367188 386.917969 772.570313 387.214844 C 772.679688 388.566406 772.792969 389.941406 772.902344 391.28125 C 778.558594 391.992188 778.558594 391.992188 778.3125 394.234375 C 776.609375 394.316406 774.878906 394.398438 772.871094 394.492188 C 772.871094 398.335938 772.71875 402.050781 772.917969 405.742188 C 773.089844 408.949219 775.804688 408.003906 777.851563 408.273438 C 778.878906 410.203125 778.390625 411.171875 776.074219 411.398438 C 771.046875 411.886719 768.582031 409.792969 768.519531 404.773438 C 768.480469 401.699219 768.496094 398.625 768.480469 395.550781 C 768.476563 395.335938 768.394531 395.121094 768.300781 394.671875 "/>
<path style=" stroke:none;fill-rule:nonzero;fill:rgb(5.899048%,32.499695%,61.999512%);fill-opacity:1;" d="M 293.980469 385.28125 C 288.5 384.730469 287.210938 385.851563 286.90625 391.402344 C 288.589844 391.488281 290.289063 391.578125 291.980469 391.664063 C 292.425781 393.832031 292.425781 393.832031 286.945313 394.734375 L 286.945313 410.449219 C 285.558594 411.167969 284.308594 410.71875 282.785156 410.835938 L 282.785156 395.167969 C 281.800781 393.894531 280.585938 394.703125 279.804688 394.035156 C 278.65625 391.230469 280.792969 391.597656 282.3125 391.46875 C 283.074219 390.4375 282.675781 389.277344 282.878906 388.226563 C 283.746094 383.6875 289.136719 380.664063 293.386719 382.320313 C 295.109375 382.992188 293.980469 384.101563 293.980469 385.28125 "/>
<path style=" stroke:none;fill-rule:nonzero;fill:rgb(5.899048%,32.499695%,61.999512%);fill-opacity:1;" d="M 414.796875 394.964844 C 413.382813 393.921875 410.34375 395.136719 411.558594 391.765625 C 412.414063 391.65625 413.371094 391.539063 414.613281 391.382813 C 414.3125 388.335938 415.796875 386.878906 419.027344 387.167969 C 419.089844 388.453125 419.152344 389.757813 419.21875 391.1875 C 420.902344 392.113281 422.859375 391.128906 425.027344 391.929688 C 424.871094 396.390625 420.738281 392.984375 419.144531 395.4375 C 419.144531 398.140625 419.050781 401.648438 419.175781 405.152344 C 419.265625 407.804688 419.960938 408.15625 424.253906 408.253906 C 425.003906 410.179688 424.710938 411.261719 422.28125 411.425781 C 417.390625 411.75 415.070313 409.855469 414.816406 404.9375 C 414.726563 403.183594 414.800781 401.417969 414.796875 399.65625 C 414.796875 398.023438 414.796875 396.394531 414.796875 394.964844 "/>
<path style=" stroke:none;fill-rule:nonzero;fill:rgb(5.899048%,32.499695%,61.999512%);fill-opacity:1;" d="M 694.871094 394.765625 C 693.199219 393.921875 690.347656 395.257813 691.292969 391.960938 C 692.222656 391.148438 693.445313 391.898438 694.582031 391.265625 C 695.269531 390.46875 694.582031 389.257813 695.117188 388.101563 C 696.082031 387.378906 697.382813 387.261719 698.8125 386.984375 C 698.902344 388.449219 698.984375 389.84375 699.082031 391.425781 L 704.285156 391.425781 C 704.953125 393.84375 704.953125 393.84375 698.972656 394.679688 C 698.972656 398.226563 698.84375 401.828125 699.011719 405.417969 C 699.164063 408.683594 701.761719 408.226563 703.992188 408.171875 C 705.078125 410.230469 704.558594 411.1875 702.238281 411.402344 C 697.214844 411.863281 694.898438 409.808594 694.871094 404.664063 C 694.855469 401.382813 694.871094 398.097656 694.871094 394.765625 "/>
<path style=" stroke:none;fill-rule:nonzero;fill:rgb(5.899048%,32.499695%,61.999512%);fill-opacity:1;" d="M 801.277344 350.492188 C 801.664063 346.253906 802.140625 342.039063 801.625 337.804688 C 800.898438 331.808594 800.3125 325.785156 799.246094 319.851563 C 798.722656 316.925781 799.945313 315.394531 802.167969 313.636719 C 803.378906 317.929688 803.535156 322.277344 806.148438 326.050781 C 805.09375 326.351563 804.308594 326.574219 803.5 326.804688 C 804.394531 334.988281 805.816406 343.015625 801.277344 350.492188 "/>
<path style=" stroke:none;fill-rule:nonzero;fill:rgb(5.899048%,32.499695%,61.999512%);fill-opacity:1;" d="M 595.222656 382.515625 C 596.75 382.453125 597.941406 382.175781 599.261719 382.769531 L 599.261719 410.570313 C 597.878906 411.054688 596.613281 410.984375 595.222656 410.640625 "/>
<path style=" stroke:none;fill-rule:nonzero;fill:rgb(5.899048%,32.499695%,61.999512%);fill-opacity:1;" d="M 518.738281 410.578125 C 517.375 411.039063 516.097656 410.996094 514.65625 410.609375 L 514.65625 382.765625 C 516.054688 382.234375 517.304688 382.289063 518.738281 382.722656 "/>
<path style=" stroke:none;fill-rule:nonzero;fill:rgb(5.899048%,32.499695%,61.999512%);fill-opacity:1;" d="M 654.589844 350.703125 C 654.9375 344.328125 655.585938 338.085938 655.15625 331.820313 C 654.867188 327.648438 654.582031 323.480469 653.59375 319.394531 C 652.824219 316.210938 652.824219 316.210938 655.917969 314 C 657.019531 317.953125 657.480469 322.050781 659.789063 325.402344 C 659.5625 326.65625 658.3125 325.59375 657.761719 327.117188 C 658.171875 333.972656 659.824219 341.652344 656.890625 349.113281 C 656.585938 349.882813 656.246094 350.808594 654.589844 350.703125 "/>
<path style=" stroke:none;fill-rule:nonzero;fill:rgb(5.899048%,32.499695%,61.999512%);fill-opacity:1;" d="M 232.839844 342.507813 C 236.839844 340.570313 241.546875 340.289063 245.011719 336.734375 C 243.648438 336.734375 242.289063 336.75 240.929688 336.730469 C 239.394531 336.710938 238.339844 335.984375 238.269531 334.402344 C 238.039063 329 244.980469 324.273438 250.203125 326.230469 C 249.75 330.683594 249.511719 330.75 245.277344 329.492188 C 243.160156 328.859375 242.230469 329.988281 242.601563 332.289063 C 243.082031 332.386719 243.488281 332.515625 243.898438 332.539063 C 245.621094 332.648438 247.707031 332.214844 248.296875 334.492188 C 248.886719 336.761719 247.746094 338.566406 245.984375 339.9375 C 242.09375 342.976563 237.632813 343.398438 232.839844 342.507813 "/>
<path style=" stroke:none;fill-rule:nonzero;fill:rgb(5.899048%,32.499695%,61.999512%);fill-opacity:1;" d="M 709.449219 391.800781 C 711.414063 391.273438 713.050781 391.183594 713.316406 393.949219 C 715.542969 392.25 717.5 390.585938 720.199219 391.132813 C 720.910156 392.179688 720.683594 393.152344 720.535156 394.113281 C 714.140625 395.796875 713.511719 396.636719 713.507813 403.4375 C 713.507813 405.835938 713.507813 408.230469 713.507813 410.753906 L 709.449219 410.753906 "/>
<path style=" stroke:none;fill-rule:nonzero;fill:rgb(5.899048%,32.499695%,61.999512%);fill-opacity:1;" d="M 641.886719 410.648438 C 640.621094 410.933594 639.464844 411.015625 638.144531 410.5625 L 638.144531 382.867188 C 639.207031 382.023438 640.433594 382.53125 641.886719 382.46875 "/>
<path style=" stroke:none;fill-rule:nonzero;fill:rgb(5.899048%,32.499695%,61.999512%);fill-opacity:1;" d="M 429.566406 391.660156 L 433.511719 391.660156 L 433.511719 410.570313 C 432.339844 411.140625 431.058594 410.910156 429.566406 410.683594 "/>
<path style=" stroke:none;fill-rule:nonzero;fill:rgb(5.899048%,32.499695%,61.999512%);fill-opacity:1;" d="M 724.878906 410.617188 L 724.878906 391.714844 L 728.929688 391.714844 L 728.929688 410.578125 C 727.503906 411.03125 726.234375 411.015625 724.878906 410.617188 "/>
<path style=" stroke:none;fill-rule:nonzero;fill:rgb(5.899048%,32.499695%,61.999512%);fill-opacity:1;" d="M 756.78125 391.671875 L 760.789063 391.671875 L 760.789063 410.59375 C 759.515625 411.054688 758.242188 410.976563 756.78125 410.625 "/>
<path style=" stroke:none;fill-rule:nonzero;fill:rgb(5.899048%,32.499695%,61.999512%);fill-opacity:1;" d="M 296.179688 391.652344 L 299.921875 391.652344 L 299.921875 410.589844 C 298.703125 411.023438 297.542969 410.925781 296.179688 410.632813 "/>
<path style=" stroke:none;fill-rule:nonzero;fill:rgb(5.899048%,32.499695%,61.999512%);fill-opacity:1;" d="M 743.773438 331.515625 C 746.269531 333.617188 748.375 334.097656 750.34375 331.101563 C 751.589844 332.5 752.667969 333.714844 753.96875 335.175781 C 753.015625 336.460938 752.003906 337.832031 750.945313 339.257813 C 749.761719 338.382813 748.707031 337.605469 747.582031 336.777344 C 746.644531 337.65625 745.71875 338.527344 744.667969 339.515625 C 743.101563 338.328125 741.632813 337.21875 739.921875 335.921875 C 741.222656 334.433594 742.394531 333.089844 743.773438 331.515625 "/>
<path style=" stroke:none;fill-rule:nonzero;fill:rgb(5.899048%,32.499695%,61.999512%);fill-opacity:1;" d="M 487.671875 358.421875 C 488.53125 357.683594 489.359375 356.96875 490.289063 356.167969 C 491.929688 356.597656 492.738281 358.085938 494.265625 359.03125 C 492.933594 360.496094 491.847656 361.6875 490.828125 362.808594 C 489.453125 362.902344 488.796875 361.761719 487.460938 361.472656 C 485.070313 363.722656 482.875 363.21875 480.976563 360.019531 C 481.820313 358.902344 482.773438 357.636719 483.800781 356.28125 C 485.433594 356.3125 486.023438 358.015625 487.671875 358.421875 "/>
<path style=" stroke:none;fill-rule:nonzero;fill:rgb(5.899048%,32.499695%,61.999512%);fill-opacity:1;" d="M 604.949219 383.628906 C 606.460938 383.136719 607.519531 383.199219 608.8125 383.488281 C 609.300781 386.5625 608.675781 389.601563 608.339844 392.769531 L 605.78125 392.769531 C 605.507813 389.730469 605.234375 386.734375 604.949219 383.628906 "/>
<path style=" stroke:none;fill-rule:nonzero;fill:rgb(5.899048%,32.499695%,61.999512%);fill-opacity:1;" d="M 709.085938 357.921875 C 708.054688 359.328125 707.058594 360.417969 705.617188 361.320313 C 704.351563 360.316406 703.085938 359.316406 701.792969 358.296875 C 702.152344 356.472656 703.882813 355.867188 704.808594 354.148438 C 706.371094 355.527344 707.710938 356.710938 709.085938 357.921875 "/>
<path style=" stroke:none;fill-rule:nonzero;fill:rgb(5.899048%,32.499695%,61.999512%);fill-opacity:1;" d="M 584.878906 323.785156 C 586.070313 324.910156 587.25 326.015625 588.4375 327.132813 C 587.683594 328.683594 586.609375 329.753906 585.410156 330.800781 C 583.851563 329.886719 582.605469 328.679688 581.242188 327.191406 C 582.40625 326.050781 583.191406 324.628906 584.878906 323.785156 "/>
<path style=" stroke:none;fill-rule:nonzero;fill:rgb(5.899048%,32.499695%,61.999512%);fill-opacity:1;" d="M 798.578125 383.898438 C 795.582031 385.679688 794.671875 389.660156 790.492188 389.21875 C 792.1875 384.210938 793.632813 383.1875 798.578125 383.898438 "/>
<path style=" stroke:none;fill-rule:nonzero;fill:rgb(5.899048%,32.499695%,61.999512%);fill-opacity:1;" d="M 272.105469 350.515625 C 270.914063 352.015625 269.984375 353.191406 268.917969 354.539063 C 267.554688 353.308594 266.363281 352.234375 265.019531 351.019531 C 265.785156 349.738281 266.890625 348.933594 268.132813 348 C 269.308594 348.746094 270.492188 349.496094 272.105469 350.515625 "/>
<path style=" stroke:none;fill-rule:nonzero;fill:rgb(5.899048%,32.499695%,61.999512%);fill-opacity:1;" d="M 434.242188 385.527344 C 434.175781 387.242188 433.210938 388.011719 431.753906 388.117188 C 430.144531 388.230469 428.90625 387.570313 428.882813 385.789063 C 428.859375 384.179688 429.964844 383.546875 431.46875 383.507813 C 432.972656 383.472656 433.949219 384.105469 434.242188 385.527344 "/>
<path style=" stroke:none;fill-rule:nonzero;fill:rgb(5.899048%,32.499695%,61.999512%);fill-opacity:1;" d="M 729.503906 385.863281 C 729.433594 387.535156 728.308594 388.113281 726.886719 388.117188 C 725.285156 388.121094 724.054688 387.363281 724.191406 385.585938 C 724.316406 384.003906 725.535156 383.464844 727.003906 383.519531 C 728.492188 383.574219 729.527344 384.15625 729.503906 385.863281 "/>
<path style=" stroke:none;fill-rule:nonzero;fill:rgb(5.899048%,32.499695%,61.999512%);fill-opacity:1;" d="M 758.726563 383.53125 C 760.222656 383.511719 761.351563 384.109375 761.421875 385.691406 C 761.492188 387.265625 760.40625 388.042969 758.945313 388.121094 C 757.328125 388.210938 756.074219 387.429688 756.0625 385.753906 C 756.050781 384.226563 757.230469 383.550781 758.726563 383.53125 "/>
<path style=" stroke:none;fill-rule:nonzero;fill:rgb(5.899048%,32.499695%,61.999512%);fill-opacity:1;" d="M 297.964844 388.171875 C 296.578125 387.917969 295.375 387.4375 295.429688 385.765625 C 295.492188 383.910156 296.78125 383.449219 298.351563 383.527344 C 299.863281 383.605469 300.828125 384.351563 300.703125 385.984375 C 300.574219 387.640625 299.335938 388.007813 297.964844 388.171875 "/>
</g>
</svg>
